<svg width="20" height="20" viewBox="0 0 20 20" fill="none" xmlns="http://www.w3.org/2000/svg">
<path fill-rule="evenodd" clip-rule="evenodd" d="M10 0C4.5 0 0 4.5 0 10C0 15.5 4.5 20 10 20C15.5 20 20 15.5 20 10C20 4.5 15.5 0 10 0ZM10 19.1C7.7 19.1 5.7 18.3 4.1 16.9C5.3 15.8 5.9 15.5 7.3 14.9C8.9 14.2 9.49741 13.1975 8.76772 11.5621C8.66772 11.2621 8.48357 11.0112 8.28357 10.7112C7.78357 9.81119 7.32067 9.19542 7.32067 6.61503C7.22067 4.01503 8.5 4 9.5 4C10.2 4 10.6 3.9 10.8 3.8C11 3.7 11.1 3.62844 11.3 3.62844C12.1 3.62844 13.1 4.5 13.1 6.9C13.1 9.3 12.7 9.8 12.2 10.8C12.1 11.1 11.9 11.3 11.7 11.7C11.4 12.3 11.3 12.9 11.5 13.5C11.7 14.2 12.4652 14.6566 13.5652 15.1566C14.4652 15.5566 15.5593 16.5 16.0593 16.9C14.5593 18.1 12.3 19.1 10 19.1ZM16.6 16.2C16.1 15.7 15 14.8 14 14.3C13.1 13.9 12.6 13.5 12.5 13C12.4 12.7 12.4 12.3 12.6 11.9C12.8 11.6 12.9 11.3 13 11.1C13.6 10.1 14 9.4 14 6.8C14 2.9 11.8 2.7 11.3 2.7C10.9 2.7 10.7 2.8 10.5 2.9C10.3 3 10.1 3.1 9.5 3.1C8.5 3.1 6.3 3.2 6.3 6.7C6.3 9.2 6.9 10.3 7.5 11.3C7.6 11.5 7.8 11.8 7.9 12C8.3 13 8 13.7 6.9 14.2C5.5 14.8 4.82107 14.9 3.42107 16.2C1.82107 14.6 0.968403 12.5 0.968403 10C0.968403 4.9 5 1.02993 10 1.02993C15 1.02993 18.9808 5 18.9808 10C18.9808 12.4 18.2 14.6 16.6 16.2Z" fill="#C5C5C5"/>
</svg>
