<svg width="20" height="20" viewBox="0 0 20 20" fill="none" xmlns="http://www.w3.org/2000/svg">
<path d="M18.4737 14.9737H9.4649H0.526316C0.210526 14.9737 0 14.7632 0 14.4474V0.526316C0 0.210526 0.210526 0 0.526316 0H18.4737C18.7895 0 19 0.210526 19 0.526316V14.4474C19 14.6579 18.7895 14.9737 18.4737 14.9737ZM18 1H1V10H18V1ZM18 11L1 10.883V14.0409H18V11ZM9.4649 11.4093C10.0965 11.4093 10.5175 11.8304 10.5175 12.462C10.5175 13.0936 10.0965 13.5146 9.4649 13.5146C8.83332 13.5146 8.41226 13.0936 8.41226 12.462C8.41226 11.8304 8.83332 11.4093 9.4649 11.4093ZM9.99121 15.5V19H14.2632C14.5789 19 14.7895 19.1579 14.7895 19.4737C14.7895 19.7895 14.5789 20 14.2632 20H4.73684C4.42105 20 4.21053 19.7895 4.21053 19.4737C4.21053 19.1579 4.42105 19 4.73684 19H9.01252V15.5C9.01252 15.1842 9.14911 14.9737 9.4649 14.9737C9.78068 14.9737 9.99121 15.1842 9.99121 15.5Z" fill="#424242"/>
</svg>
